<svg xmlns="http://www.w3.org/2000/svg" xmlns:xlink="http://www.w3.org/1999/xlink" version="1.1" x="0px" y="0px" viewBox="0 0 595.28 595" enable-background="new 0 0 595.28 596" xml:space="preserve"><rect x="218.016" y="317.291" /><rect x="294.148" y="346.166" transform="matrix(-0.3867 -0.9222 0.9222 -0.3867 174.9386 823.3102)" width="134.161" height="14.641"/><path d="M395.293,282.601l1.202-2.561c10.447-22.341-1.294-76.117-10.262-97.485c-10.992-26.209-33.861-44.781-60.85-50.617  c-6.473-35.227-37.236-62.044-74.31-62.044c-41.762,0-75.737,33.976-75.737,75.739c0,7.48,1.129,14.696,3.16,21.519  c-21.41,15.596-35.412,40.79-35.412,69.252c0,23.177,9.968,77.312,28.24,93.873l2.095,1.896h19.623v158.015h33.21v15.095  l38.288,20.825V332.172h19.631l2.094-1.896c1.688-1.529,3.276-3.468,4.82-5.577l2.082,0.729l18.098-7.595l61.102,145.72  l30.621-12.836l5.842,13.916l43.366,4.406l-75.003-178.853L395.293,282.601z M182.659,145.633c0-37.723,30.693-68.416,68.415-68.416  c32.568,0,59.763,22.921,66.614,53.448c-3.469-0.421-6.972-0.693-10.526-0.693c-11.385,0-22.525,2.246-33.11,6.687  c-9.647,4.041-18.106,9.704-25.301,16.477c-6.423-1.538-13.08-2.438-19.96-2.438c-16.031,0-30.993,4.505-43.843,12.192  C183.503,157.368,182.659,151.604,182.659,145.633z M249.896,317.527v183.936l-8.996-4.892v-21.032h-33.212V317.527h-28.347  c-12.086-14.217-21.61-57.883-21.61-81.124c0-22.313,10.354-42.228,26.488-55.265c3.775,7.087,8.653,13.473,14.389,18.994  c-3.032,5.191-4.899,11.148-4.899,17.584c0,19.352,15.739,35.092,35.091,35.092c19.345,0,35.084-15.74,35.084-35.092  c0-19.344-15.739-35.083-35.084-35.083c-10.27,0-19.43,4.512-25.858,11.563c-5.106-5.064-9.383-10.949-12.701-17.406  c11.12-7.209,24.344-11.449,38.552-11.449c39.183,0,71.063,31.88,71.063,71.062c0,23.248-9.525,66.913-21.604,81.124H249.896z   M248.88,221.264c-1.688,9.583-10.026,16.898-20.081,16.898c-11.27,0-20.445-9.176-20.445-20.445c0-3.003,0.693-5.835,1.859-8.409  C221.433,216.537,234.663,220.856,248.88,221.264z M214.353,203.271c3.705-3.704,8.812-5.992,14.446-5.992  c9.982,0,18.279,7.194,20.053,16.662C236.187,213.533,224.387,209.686,214.353,203.271z M305.432,198.259  c3.826-3.962,7.173-8.36,10.068-13.071c1.359,1.587,2.489,3.381,3.325,5.37c3.769,9.003,0.572,19.192-7.101,24.6  C310.208,209.258,308.105,203.6,305.432,198.259z M301.67,191.521c-2.652-4.298-5.671-8.338-9.025-12.092  c2.36-0.908,4.813-1.416,7.323-1.416c3.511,0,6.843,0.938,9.783,2.546C307.412,184.479,304.73,188.161,301.67,191.521z   M429.154,451.977l-10.183-1.029l-8.146-19.394l-30.621,12.836l-61.1-145.721l-18.437,7.729  c9.031-22.99,13.831-53.927,13.831-69.995c0-2.002-0.166-3.97-0.301-5.942c17.363-7.717,25.508-27.955,18.128-45.568  c-5.479-13.072-18.186-21.524-32.359-21.524c-4.662,0-9.225,0.922-13.56,2.739c-1.802,0.758-3.396,1.773-4.99,2.788  c-5.092-3.977-10.641-7.373-16.563-10.133c4.505-3.383,9.433-6.329,14.859-8.604c8.782-3.675,18.014-5.541,27.447-5.541  c28.719,0,54.456,17.112,65.57,43.6c8.988,21.433,17.09,65.378,11.44,83.161l-26.145,10.971L429.154,451.977z"/></svg>
