<?xml version="1.0" encoding="UTF-8" standalone="no"?>
<svg width="110px" height="110px" viewBox="0 0 110 110" version="1.1" xmlns="http://www.w3.org/2000/svg" xmlns:xlink="http://www.w3.org/1999/xlink" class="logo-svg">
    <!-- Generator: Sketch 46.2 (44496) - http://www.bohemiancoding.com/sketch -->
    <title>logo</title>
    <defs></defs>
    <g id="Page-1" stroke="none" stroke-width="1" fill="none" fill-rule="evenodd">
        <g id="1" transform="translate(5.000000, 19.000000)" stroke="#2196F3" stroke-width="0.5">
            <polyline id="Shape" stroke-linecap="round" stroke-linejoin="round" points="94.9469965 41.4314721 99.6819788 35.6751269 86.7844523 25.0152284 86.7844523 1.84771574 73.4275618 1.84771574 73.4275618 13.964467 56.7137809 0.14213198 27.3319315 24.4533983"></polyline>
            <path d="M13.0035336,60.6548223 C5.97173145,60.6548223 0.247349823,54.9340102 0.247349823,47.8629442 C0.247349823,40.7563452 5.97173145,35.035533 13.0035336,35.035533 C12.0141343,30.7360406 14.0282686,26.2944162 17.9151943,24.2335025 C21.8374558,22.1725888 26.6077739,23.0609137 29.5759717,26.3299492 C32.5088339,29.6345178 32.8621908,34.5025381 30.459364,38.1979695 C36.6077739,38.1979695 41.6254417,43.2081218 41.6254417,49.4263959 C41.6254417,55.6446701 36.6077739,60.6548223 30.459364,60.6548223 L13.0035336,60.6548223 Z" id="Shape"></path>
            <path d="M26.0506933,60.6548223 L25.9717314,65.7005076 C25.9717314,68.0456853 27.844523,69.964467 30.2120141,69.964467 L49.2226148,69.964467 L49.2226148,49.5329949 L64.2402827,49.5329949 L64.2402827,69.964467 L83.2508834,69.964467 C85.5830389,69.964467 87.4911661,68.0456853 87.4911661,65.7005076 L87.1024735,40.8629442 L56.7137809,15.7411168 L31.1835803,36.8710793 C30.9789607,37.3262705 30.7376468,37.769984 30.459364,38.1979695 C36.6077739,38.1979695 41.6254417,43.2081218 41.6254417,49.4263959 C41.6254417,55.6446701 36.6077739,60.6548223 30.459364,60.6548223 L26.0506933,60.6548223 Z" id="Combined-Shape" stroke-linecap="round" stroke-linejoin="round"></path>
        </g>
    </g>
</svg>
