<?xml version="1.0" encoding="UTF-8" standalone="no"?>
<svg viewBox="0 0 344 344" version="1.1" xmlns="http://www.w3.org/2000/svg" xmlns:xlink="http://www.w3.org/1999/xlink">
    <!-- Generator: Sketch 46.2 (44496) - http://www.bohemiancoding.com/sketch -->
    <title>Artboard 3 Copy 8</title>
    <desc>Created with Sketch.</desc>
    <defs></defs>
    <g id="Page-1" stroke="none" stroke-width="1" fill="none" fill-rule="evenodd">
        <g id="Artboard-3-Copy-8" transform="translate(-32.000000, -27.000000)">
            <circle id="Oval-2" fill="#FFFFFF" cx="204" cy="198.5" r="171.884884"></circle>
            <polygon id="Line" stroke="#000000" fill="#FFFFFF" stroke-linecap="square" points="85 144.5 205 220.5 303 160.5 303 226 205 286 85 210 85 240.5 205 316.5 327 240.5 327 116 205 190.5 85 116"></polygon>
            <polyline id="Line-Copy-2" stroke="#000000" fill="#FFFFFF" stroke-linecap="square" points="85 116 205 190.5 327 116 310.5 105.5 205 170 101.5 105.5 85 116"></polyline>
            <polygon id="Line-2" stroke="#000000" fill="#FFFFFF" stroke-linecap="square" points="287 170.300003 287 216 205 265.5 117 210 152 186.949997 136 176.800003 85 210 205 286 303 226 303 160.5"></polygon>
            <polygon id="Line-2-Copy-15" stroke="#000000" fill="#FFFFFF" stroke-linecap="square" points="137.050003 222.649994 172 199.649994 152 187 117 210"></polygon>
            <path d="M303,226 L287,216" id="Line-6" stroke="#000000" stroke-linecap="square"></path>
            <path d="M204.5,220.5 L204.5,190.5" id="Line-7-Copy" stroke="#000000" stroke-linecap="square"></path>
            <path d="M204.5,316.5 L204.5,286" id="Line-7-Copy-3" stroke="#000000" stroke-linecap="square"></path>
            <path d="M117,209.5 L85,209.5" id="Line-7" stroke="#000000" stroke-linecap="square"></path>
            <path d="M204.5,286 L204.5,265.5" id="Line-7" stroke="#000000" stroke-linecap="square"></path>
            <path d="M204.5,190.5 L204.5,170" id="Line-7-Copy-4" stroke="#000000" stroke-linecap="square"></path>
        </g>
    </g>
</svg>
